<svg xmlns="http://www.w3.org/2000/svg" viewBox="0 0 500 500"><g id="freepik--background-complete--inject-11"><path d="M90.6,344.51c0-1.92-.11-3.82-.13-5.7l.28.28c-4.54.05-9.09.16-13.63.17l-13.63.06.51-.51,0,11.52-.46-.46c2.24,0,4.48,0,6.74.06L77,350l13.75.29Zm-13.36,6.1-6.86.12c-2.29,0-4.59,0-6.89.06H63v-.46L63,338.81v-.52h.52l13.63.07c4.54,0,9.09.11,13.63.17H91v.28c0,1.95-.09,3.9-.13,5.82l-.15,5.7Z" style="fill:#ebebeb"></path><path d="M75.4,359c-.05-1.92-.12-3.81-.14-5.7l.28.28c-4.54.06-9.08.17-13.63.17l-13.63.07.52-.52-.06,11.52-.46-.46c2.25,0,4.49,0,6.74.06l6.77.12,13.75.28ZM62,365.14l-6.86.11c-2.29.05-4.59,0-6.89.06h-.46v-.47l0-11.52v-.51h.52l13.63.06c4.55,0,9.09.12,13.63.17h.29v.27c0,2-.09,3.9-.13,5.82l-.15,5.7Z" style="fill:#ebebeb"></path><path d="M105.81,359c0-1.92-.12-3.81-.14-5.7l.29.28c-4.55.06-9.09.17-13.63.17l-13.63.07.51-.52-.06,11.52-.45-.46c2.24,0,4.48,0,6.73.06l6.78.12,13.75.28Zm-13.37,6.11-6.85.11c-2.29.05-4.6,0-6.89.06h-.46v-.47l-.06-11.52v-.51h.52l13.63.06c4.54,0,9.08.12,13.63.17h.28v.27c0,2-.09,3.9-.14,5.82l-.14,5.7Z" style="fill:#ebebeb"></path><path d="M451.81,359c-.05-1.92-.12-3.81-.14-5.7l.28.28c-4.54.06-9.09.17-13.63.17l-13.63.07.51-.52-.05,11.52-.46-.46c2.25,0,4.49,0,6.74.06l6.77.12,13.75.28Zm-13.37,6.11-6.86.11c-2.29.05-4.59,0-6.89.06h-.46v-.47l-.05-11.52v-.51h.52l13.63.06c4.54,0,9.09.12,13.63.17h.29v.27c0,2-.09,3.9-.13,5.82l-.15,5.7Z" style="fill:#ebebeb"></path><path d="M436.6,55c-.05-1.92-.12-3.81-.14-5.7l.28.28c-4.54.05-9.08.16-13.63.17l-13.63.06.52-.51-.06,11.52-.46-.46c2.25,0,4.49,0,6.74.06l6.78.11,13.74.29Zm-13.37,6.11-6.85.11c-2.3.05-4.6,0-6.9.06H409v-.46L409,49.34v-.52h.51l13.63.06c4.55,0,9.09.12,13.63.17H437v.28c0,1.95-.09,3.9-.14,5.82l-.15,5.7Z" style="fill:#ebebeb"></path><path d="M451.81,69.56c-.05-1.91-.12-3.81-.14-5.69l.28.28c-4.54,0-9.09.16-13.63.16l-13.63.07.51-.51-.05,11.51-.46-.45c2.25,0,4.49,0,6.74,0l6.77.12,13.75.28Zm-13.37,6.11-6.86.12c-2.29,0-4.59,0-6.89,0h-.46v-.47l-.05-11.51v-.52h.52l13.63.07c4.54,0,9.09.11,13.63.16h.29v.28c0,1.95-.09,3.89-.13,5.82L452,75.38Z" style="fill:#ebebeb"></path><path d="M75.4,55.05c-.05-1.92-.12-3.81-.14-5.7l.28.28c-4.54.06-9.08.17-13.63.17l-13.63.07.52-.52-.06,11.52-.46-.46c2.25,0,4.49,0,6.74.06l6.77.11,13.75.29ZM62,61.16l-6.86.11c-2.29,0-4.59,0-6.89.06h-.46v-.46l0-11.52v-.51h.52l13.63.06c4.55,0,9.09.12,13.63.17h.29v.28c0,2-.09,3.9-.13,5.82l-.15,5.7Z" style="fill:#ebebeb"></path><path d="M118.34,121.34c0,1.92.12,3.81.14,5.7l-.28-.28c4.54-.05,9.08-.16,13.63-.17l13.63-.06-.52.51.06-11.52.46.46c-2.25,0-4.49,0-6.74-.06l-6.77-.11-13.75-.29Zm13.37-6.11,6.86-.11c2.29-.05,4.59,0,6.89-.06h.45v.46L146,127v.52h-.51l-13.63-.06c-4.55,0-9.09-.12-13.63-.17h-.29V127c0-2,.08-3.9.13-5.82l.15-5.7Z" style="fill:#ebebeb"></path><path d="M133.55,106.82c0,1.91.12,3.81.14,5.69l-.29-.28c4.55,0,9.09-.16,13.63-.16l13.63-.07-.51.51.06-11.51.45.45c-2.24,0-4.48,0-6.73,0l-6.78-.12L133.4,101Zm13.37-6.11,6.85-.12c2.29,0,4.6,0,6.89,0h.46V101l.06,11.51V113h-.52L147,113c-4.54,0-9.08-.11-13.63-.16h-.28v-.28c0-2,.09-3.89.14-5.82l.14-5.69Z" style="fill:#ebebeb"></path><path d="M80.31,213.22c0,1.92.12,3.81.14,5.7l-.28-.28c4.54-.06,9.08-.17,13.63-.17l13.63-.07-.52.52L107,207.4l.46.46c-2.25,0-4.49,0-6.74-.06l-6.77-.11-13.75-.29Zm13.37-6.11,6.86-.11c2.29-.05,4.59,0,6.89-.06h.46v.46l0,11.52v.51h-.52l-13.63-.06c-4.55,0-9.09-.12-13.63-.17h-.29v-.28c0-2,.09-3.9.13-5.82l.15-5.7Z" style="fill:#ebebeb"></path><path d="M50.2,244.11a2.92,2.92,0,0,1-2,3.64l1.07,3.56a2.92,2.92,0,0,1,1.69,5.6l1.07,3.57a2.92,2.92,0,0,1,1.69,5.6l1.07,3.57a2.92,2.92,0,0,1,1.68,5.6l1.07,3.56a2.93,2.93,0,0,1,1.69,5.61L60.34,288a2.92,2.92,0,0,1,1.68,5.6l.94,3.11,3.29-1a2.92,2.92,0,1,1,5.6-1.68l3.56-1.08a2.92,2.92,0,1,1,5.6-1.68l3.56-1.07a2.93,2.93,0,0,1,5.61-1.69l3.56-1.07a2.92,2.92,0,1,1,5.6-1.68l3.57-1.08a2.92,2.92,0,0,1,5.6-1.68l3.29-1-.94-3.11a2.92,2.92,0,1,1-1.68-5.6l-1.07-3.56a2.93,2.93,0,0,1-1.69-5.61l-1.07-3.56a2.92,2.92,0,1,1-1.68-5.6l-1.07-3.56a2.92,2.92,0,1,1-1.69-5.6l-1.07-3.57a2.92,2.92,0,1,1-1.69-5.6l-1.07-3.56a2.92,2.92,0,1,1-1.68-5.6l-1-3.22-3.29,1a2.92,2.92,0,0,1-5.59,1.68L82,228a2.92,2.92,0,0,1-5.59,1.68l-3.58,1.08a2.91,2.91,0,0,1-5.58,1.68l-3.58,1.08a2.92,2.92,0,0,1-5.59,1.68l-3.58,1.07a2.91,2.91,0,0,1-5.58,1.68l-3.3,1,1,3.22A2.93,2.93,0,0,1,50.2,244.11Z" style="fill:#ebebeb"></path><rect x="62.53" y="240.65" width="32.33" height="39.63" transform="translate(229.06 487.24) rotate(163.26)" style="fill:#dbdbdb"></rect><rect x="374.07" y="111.3" width="58.83" height="92.77" transform="translate(157.11 514) rotate(-76.68)" style="fill:#ebebeb"></rect><path d="M455.4,139.74c-4.47,2.62-9,5.08-13.46,7.65s-9,5-13.52,7.4q-7.07,3.81-14.14,7.54l-.43.25-12.53,6.56-.62.3-.4-.54q-4.14-5.75-8.25-11.5c-.1-.12-.19-.26-.29-.4q-4.67-6.51-9.27-13.11c-2.93-4.18-5.85-8.41-8.75-12.65s-5.79-8.52-8.61-12.87c3.17,3.91,6.24,7.95,9.35,11.92s6.17,8,9.21,12.12q5.1,6.75,10.15,13.66s0,0,0,0l7.56,10.31c3.79-2,7.59-3.91,11.37-5.82,0,0,0,0,0,0C417.9,158,423,155.4,428,152.88c4.54-2.25,9.09-4.49,13.65-6.68S450.82,141.81,455.4,139.74Z" style="fill:#fff"></path><path d="M393.67,157.41c-.05,0-.08.05-.13.07l-1.71.86c-2.72,1.38-5.47,2.66-8.25,3.88-3.39,1.51-6.83,2.92-10.28,4.31s-6.92,2.67-10.43,3.9-7,2.41-10.64,3.41c3.31-1.75,6.68-3.32,10.07-4.82s6.85-2.92,10.29-4.31S379.52,162,383,160.8c2.8-1,5.63-1.93,8.49-2.77l2-.58Z" style="fill:#fff"></path><path d="M442.07,195.1c-2.77-2.5-5.41-5.14-8-7.81s-5.09-5.42-7.58-8.17-4.91-5.58-7.26-8.46c-1.93-2.33-3.82-4.7-5.61-7.14-.4-.52-.77-1-1.15-1.56,0,0-.05-.09-.09-.12l.12.1,1.53,1.42c2.18,2,4.27,4.14,6.34,6.28,2.59,2.67,5.09,5.41,7.57,8.18s4.91,5.58,7.26,8.46S439.9,192.06,442.07,195.1Z" style="fill:#fff"></path><rect x="312.97" y="49.35" width="80.7" height="51.18" style="fill:#ebebeb"></rect><path d="M393.67,49.35c-3.26,3.12-6.58,6.1-9.87,9.17s-6.62,6-10,9c-3.48,3.11-7,6.17-10.46,9.22l-.31.3-9.3,8.07-.46.38-.45-.38L343.58,77l-.33-.29c-3.5-3-7-6.11-10.47-9.23-3.32-3-6.64-6-9.95-9s-6.6-6.05-9.86-9.17c3.46,2.67,6.87,5.48,10.3,8.22S330.1,63.14,333.5,66q5.67,4.69,11.33,9.53l0,0c2.83,2.39,5.65,4.8,8.47,7.2,2.82-2.4,5.64-4.83,8.46-7.2,0,0,0,0,0,0q5.65-4.8,11.33-9.53,5.08-4.23,10.22-8.39C386.8,54.83,390.2,52,393.67,49.35Z" style="fill:#fff"></path><path d="M345,76.68s-.06.06-.1.08c-.42.37-.85.73-1.27,1.08-2,1.71-4.1,3.35-6.2,4.93-2.57,2-5.2,3.84-7.85,5.71s-5.32,3.65-8,5.39-5.48,3.46-8.33,5c2.45-2.14,5-4.14,7.56-6.09s5.21-3.85,7.84-5.71,5.34-3.66,8.06-5.41c2.17-1.39,4.38-2.76,6.63-4.05.52-.3,1.05-.59,1.58-.88Z" style="fill:#fff"></path><path d="M393.48,98.89c-2.85-1.56-5.62-3.27-8.33-5s-5.39-3.56-8.06-5.39-5.27-3.74-7.84-5.71c-2.1-1.58-4.17-3.21-6.18-4.92-.44-.36-.86-.72-1.29-1.09l-.09-.08a.45.45,0,0,0,.12.06l1.57.89c2.26,1.29,4.45,2.66,6.63,4.05,2.73,1.75,5.4,3.57,8.05,5.41s5.27,3.74,7.84,5.71S391,96.75,393.48,98.89Z" style="fill:#fff"></path><rect x="81.95" width="0.84" height="79.34" style="fill:#c7c7c7"></rect><polygon points="117.13 112.85 114.33 119 50.39 119 47.6 112.85 74.83 94.01 89.91 94.01 117.13 112.85" style="fill:#ebebeb"></polygon><polygon points="91.8 75.86 89.91 94.01 74.83 94.01 72.94 75.86 91.8 75.86" style="fill:#dbdbdb"></polygon><polygon points="117.13 112.86 114.33 119 50.39 119 47.6 112.86 117.13 112.86" style="fill:#dbdbdb"></polygon><rect x="156.59" width="0.84" height="59.51" style="fill:#c7c7c7"></rect><polygon points="191.77 93.02 188.97 99.17 125.03 99.17 122.25 93.02 149.47 74.18 164.55 74.18 191.77 93.02" style="fill:#ebebeb"></polygon><polygon points="166.44 56.03 164.55 74.18 149.47 74.18 147.58 56.03 166.44 56.03" style="fill:#dbdbdb"></polygon><polygon points="191.77 93.03 188.97 99.17 125.03 99.17 122.24 93.03 191.77 93.03" style="fill:#dbdbdb"></polygon></g><g id="freepik--Plant--inject-11"><path d="M80.18,312.54a37.73,37.73,0,0,1-.74,14.51,39.51,39.51,0,0,1-2.22,6.41c-1.15,2.65-2.36,5.24-2.07,8.15.28.18-.68.15-.71-.13-7.76-4.42-17.71-5.23-23.68-12.45a24.74,24.74,0,0,1-4.93-12.09,36.61,36.61,0,0,1,.28-14.6c1-3.94,3.33-7.73,7-9.66S62,290.86,66,292.1C74.64,294.8,79,304.15,80.18,312.54Z" style="fill:#FFFFFF"></path><path d="M84.16,370q-1.59-5.3-3.2-10.58c-2.13-6.9-4.35-13.77-6.79-20.56q-2.2-6.09-4.65-12.08a73.48,73.48,0,0,1,.93-7.5c.65-3,1.59-5.91,2.47-8.86,0-.18-.24-.27-.32-.1-1.74,4.05-4,9.24-4.07,14.05q-2.84-6.78-6.1-13.35a57.51,57.51,0,0,1,.34-11.12.13.13,0,0,0-.26-.05,39.7,39.7,0,0,0-.76,9.81c-1.67-3.29-3.42-6.54-5.29-9.74-.17-.29-.57,0-.42.29q4.37,8.42,8.16,17.15a37.13,37.13,0,0,0-12.17-7c-.19-.07-.34.21-.14.29a44.24,44.24,0,0,1,13.16,8.71q2.73,6.38,5.21,12.86c-4.85-4.76-11.5-7.89-17.92-9.57-.22,0-.28.28-.07.34,7.44,2.24,13.22,6.46,18.87,11.52.66,1.75,1.3,3.5,1.94,5.26q3.58,10,6.84,20.06,1.58,4.85,3.08,9.69c1.09,3.48,1.94,7.15,3.35,10.51.13.32.71.25.64-.13A99.82,99.82,0,0,0,84.16,370Z" style="fill:#263238"></path><path d="M71.29,305.75a19.13,19.13,0,0,0-2.79,7c0,.06.08.1.11,0a59.37,59.37,0,0,1,3-6.83C71.75,305.69,71.42,305.55,71.29,305.75Z" style="fill:#263238"></path><path d="M57.45,321.92a20.27,20.27,0,0,0-7-2.35c-.07,0-.11.09,0,.11,1.12.47,2.29.79,3.43,1.23s2.24,1,3.39,1.37A.2.2,0,0,0,57.45,321.92Z" style="fill:#263238"></path><path d="M53.55,302.47a13.37,13.37,0,0,0-2.24-1.38.12.12,0,0,0-.13.19,13.52,13.52,0,0,0,2.21,1.44C53.53,302.8,53.69,302.56,53.55,302.47Z" style="fill:#263238"></path><path d="M106.34,338.9c-5.59,1.65-11.21,3.19-16.8,4.83-.48.14-9.93-18-6.51-27.28a30.41,30.41,0,0,1,19-18c4-1.35,8.89-2.49,13.11-1.56,3.75.83,6.4,3.89,7.61,7.42,1.66,4.79,1.11,10.5.21,15.4a26.91,26.91,0,0,1-5.5,12.56C114.48,335.77,110.69,337.6,106.34,338.9Z" style="fill:#FFFFFF"></path><path d="M106.34,338.9c-5.59,1.65-11.21,3.19-16.8,4.83-.48.14-9.93-18-6.51-27.28a30.41,30.41,0,0,1,19-18c4-1.35,8.89-2.49,13.11-1.56,3.75.83,6.4,3.89,7.61,7.42,1.66,4.79,1.11,10.5.21,15.4a26.91,26.91,0,0,1-5.5,12.56C114.48,335.77,110.69,337.6,106.34,338.9Z" style="opacity:0.1"></path><path d="M114.44,321.69a73.13,73.13,0,0,1-11,4.31,47.06,47.06,0,0,0-7.31,2.65c2.36-5.26,5-10.41,7.69-15.51A25.14,25.14,0,0,0,114,307.91a.16.16,0,0,0-.2-.24,50.27,50.27,0,0,1-9.56,4.79q1.13-2.06,2.26-4.11c.22-.38-.31-.76-.56-.39a117.8,117.8,0,0,0-8,13.33,61.46,61.46,0,0,1-.57-12.21.08.08,0,0,0-.16,0,40.63,40.63,0,0,0,.14,13.43c-2,3.91-3.75,7.92-5.35,12-.64-2.44-1.47-4.84-2-7.3a33.31,33.31,0,0,1-.8-10.76c0-.1-.15-.11-.17,0a38,38,0,0,0,2.35,19.75c-.94,2.44-1.83,4.89-2.64,7.35a146.1,146.1,0,0,0-7.42,38.77.24.24,0,0,0,.47,0A192.23,192.23,0,0,1,90.14,344c1.62-4.87,3.49-9.6,5.53-14.24,3.3-1,6.59-2.3,9.83-3.43a30.57,30.57,0,0,0,9.06-4.44C114.67,321.8,114.55,321.63,114.44,321.69Z" style="fill:#263238"></path><path d="M119.65,316.43c-3.42,1.22-6.66,2.92-10.07,4.15-.16.06-.07.31.09.28,3.61-.75,7.2-1.86,10.11-4.23C119.89,316.54,119.77,316.39,119.65,316.43Z" style="fill:#263238"></path><path d="M91.74,309.06c0-.18-.22-.29-.28-.1-.93,3.15-1.58,6.49-.67,9.71a.12.12,0,0,0,.24,0C91.2,315.41,91,312.26,91.74,309.06Z" style="fill:#263238"></path><path d="M105.86,301.78a8.4,8.4,0,0,0-1.48,5.36c0,.12.2.19.23.05.42-1.81,1.11-3.45,1.67-5.2A.24.24,0,0,0,105.86,301.78Z" style="fill:#263238"></path><path d="M39.86,346.88c1.64,5.2,5.54,12.39,11.7,12.44,4,0,8-.43,12-.49,4.29-.06,8.59-.05,12.87.2.35,0-.52-12.85-10.83-19.11-2.88-1.76-6.42-2.31-9.69-3a44.26,44.26,0,0,0-11.46-1.19c-2.37.09-4.34.59-5.18,3S39.08,344.41,39.86,346.88Z" style="fill:#FFFFFF"></path><path d="M44.3,340.37c2.51.65,5,1.39,7.55,2.19a24.91,24.91,0,0,0-2.08-2,40.54,40.54,0,0,0-3.43-2.4c-.09-.07,0-.25.09-.2a14.06,14.06,0,0,1,6.08,4.83c3.13,1,6.24,2.13,9.23,3.36a34.79,34.79,0,0,1,5.9,3.11,23.23,23.23,0,0,0-2.13-3.72c-1.37-1.77-3.22-2.76-5-4a.16.16,0,0,1,.17-.28,14.71,14.71,0,0,1,8,8.72,34.74,34.74,0,0,1,5.85,5.31c6.82,7.75,12.19,18.06,12.21,28.58,0,.25-.4.32-.45.06a58.3,58.3,0,0,0-13-27.94c-.49-.57-1-1.11-1.5-1.64a46.23,46.23,0,0,0-5.64-.42c-2.19,0-4.37.33-6.56.5-3.59.3-7.57.34-10.82-1.47-.14-.08-.05-.33.11-.27,7.24,2.63,14.83-.71,22.09.86a33.81,33.81,0,0,0-10.7-6.9l-.67-.27c-4.64.56-9.55,1.77-14.07.26a.11.11,0,0,1,.06-.21c4.37,1.09,8.56-.28,12.87-.5-4.69-1.83-9.48-3.29-14.19-5.1C43.88,340.63,43.87,340.26,44.3,340.37Z" style="fill:#263238"></path><path d="M42.25,345a63.86,63.86,0,0,0,6.76.51c.05,0,.07.08,0,.09a14,14,0,0,1-6.83-.43C42.09,345.09,42.14,344.93,42.25,345Z" style="fill:#263238"></path><path d="M57.52,340.49a11,11,0,0,1,3.35,2.32c.12.11,0,.32-.17.22-.57-.41-1.15-.8-1.74-1.18a16,16,0,0,1-1.63-1A.2.2,0,0,1,57.52,340.49Z" style="fill:#263238"></path><path d="M93.93,357.23c-.08.17.17.33.26.15h0a.21.21,0,0,0,.16.1,104.11,104.11,0,0,0,12.6,2.2c3.41.3,7.34.49,10.32-1.49,4-2.68,6.71-9.84,4.52-14.4-2.59-5.41-10.38-2.47-14.29-.55A28.74,28.74,0,0,0,93.93,357.23Z" style="fill:#FFFFFF"></path><path d="M93.93,357.23c-.08.17.17.33.26.15h0a.21.21,0,0,0,.16.1,104.11,104.11,0,0,0,12.6,2.2c3.41.3,7.34.49,10.32-1.49,4-2.68,6.71-9.84,4.52-14.4-2.59-5.41-10.38-2.47-14.29-.55A28.74,28.74,0,0,0,93.93,357.23Z" style="opacity:0.1"></path><path d="M90.9,359.73A40.6,40.6,0,0,1,98.43,354a25.67,25.67,0,0,1,7.62-7.77c.15-.1.28.13.14.24a34.87,34.87,0,0,0-6.43,6.76,71.09,71.09,0,0,1,9.44-4.29,12.47,12.47,0,0,1,5.07-5.08s.09,0,0,.07a20.84,20.84,0,0,0-4.58,4.8c1.92-.72,3.86-1.38,5.79-2,.18-.06.24.2.08.27-3.45,1.34-7,2.76-10.38,4.4a39.86,39.86,0,0,0,12.57,0c.11,0,.16.15,0,.18a24.77,24.77,0,0,1-13.34.2,62.16,62.16,0,0,0-6.33,3.55,15.63,15.63,0,0,1,5.12.41,38.3,38.3,0,0,0,9,1c.12,0,.15.18,0,.2-5.21.9-10.14-1.47-15.31-.85a38.16,38.16,0,0,0-13.23,15.47c-2.17,4.42-3.35,9.11-5.11,13.69a.17.17,0,0,1-.32-.09C79.85,376.1,84.33,366.16,90.9,359.73Z" style="fill:#263238"></path><path d="M106.63,347.36a5.91,5.91,0,0,1,1.33-1.62,5.22,5.22,0,0,1,1.54-1.15s.08.05,0,.09c-.43.48-1,.84-1.48,1.3s-.85,1-1.32,1.48A.08.08,0,0,1,106.63,347.36Z" style="fill:#263238"></path><path d="M115.22,350.16c.78-.19,1.6-.18,2.38-.34a22.74,22.74,0,0,0,2.31-.69.09.09,0,0,1,.07.17,7.68,7.68,0,0,1-4.76,1.1C115.1,350.38,115.11,350.19,115.22,350.16Z" style="fill:#263238"></path><polygon points="69.42 374.01 70.11 381.78 72.43 408.01 92.98 408.01 95.88 381.78 96.74 374.01 69.42 374.01" style="fill:#455a64"></polygon><polygon points="69.42 374.01 70.11 381.78 95.88 381.78 96.74 374.01 69.42 374.01" style="fill:#263238"></polygon><rect x="67.39" y="371.89" width="31.38" height="6.3" transform="translate(166.16 750.08) rotate(180)" style="fill:#455a64"></rect></g><g id="freepik--Shadow--inject-11"><ellipse cx="260.67" cy="455.93" rx="100.46" ry="8.03" style="fill:#ebebeb"></ellipse></g><g id="freepik--Envelope--inject-11"><rect x="152.24" y="215.75" width="303.17" height="192.26" style="fill:#FFFFFF"></rect><g style="opacity:0.1"><rect x="152.24" y="215.75" width="303.17" height="192.26"></rect></g><path d="M152.24,215.75H455.4v41.32L331.73,337.51a51.15,51.15,0,0,1-55.78,0L152.24,257.07Z" style="fill:#FFFFFF"></path><path d="M152.24,215.75H455.4v41.32L331.73,337.51a51.15,51.15,0,0,1-55.78,0L152.24,257.07Z" style="opacity:0.2"></path><g style="opacity:0.1"><path d="M418.34,382.7c12.34,8.47,24.82,16.71,37.06,25.31-13-7.37-25.81-15.11-38.7-22.67S391,370,378.28,362.12q-19.84-12.09-39.67-24.5l-1.69,1.11a79.23,79.23,0,0,1-10,5.89A53.92,53.92,0,0,1,292,348.45a60.93,60.93,0,0,1-11.25-3.84,78.53,78.53,0,0,1-10-5.89l-1.66-1.09Q249.26,350,229.36,362.17,210.24,373.84,191,385.34c-12.93,7.56-25.72,15.3-38.74,22.67,12.24-8.6,24.72-16.84,37.06-25.31q18.64-12.42,37.42-24.77,18.41-12,36.87-23.89l-2.1-1.41-18.4-12.3-9.19-6.16-9.15-6.23c-24.42-16.58-48.68-33.39-72.51-50.87,25.64,14.69,50.85,30,75.91,45.64l9.4,5.83,9.36,5.91,18.71,11.83c1.68,1.05,3.34,2.12,5,3.19l4.31,2.78c.45.3.9.59,1.34.86a62.46,62.46,0,0,0,7.74,4.4,52.23,52.23,0,0,0,9.67,3.21,53.1,53.1,0,0,0,10.13,1.06,47.27,47.27,0,0,0,19.82-4.25,64,64,0,0,0,7.75-4.41c.44-.27.88-.56,1.33-.85l4.26-2.75c1.68-1.08,3.36-2.16,5.06-3.22,12.48-7.86,24.89-15.84,37.46-23.57,25.06-15.6,50.27-31,75.9-45.66-23.83,17.47-48.09,34.29-72.51,50.87-12.16,8.35-24.49,16.47-36.73,24.69-.7.47-1.4.94-2.11,1.4q18.52,11.88,36.92,24C393.44,366.13,405.91,374.42,418.34,382.7Z"></path></g><polygon points="401.58 408.01 98.42 408.01 98.42 151.56 249.98 55.31 401.58 151.56 401.58 408.01" style="fill:#FFFFFF"></polygon><polygon points="385.84 407.54 114.16 407.54 114.16 159.88 249.98 73.63 385.84 159.88 385.84 407.54" style="opacity:0.1"></polygon><rect x="108.53" y="158.38" width="282.95" height="249.01" style="fill:#ebebeb"></rect><rect x="151.77" y="217.19" width="143.68" height="8.06" transform="translate(447.22 442.43) rotate(180)" style="fill:#dbdbdb"></rect><rect x="306.81" y="190.04" width="44.18" height="8.06" transform="translate(657.79 388.14) rotate(180)" style="fill:#dbdbdb"></rect><rect x="151.77" y="237.53" width="135.96" height="8.06" transform="translate(439.51 483.12) rotate(180)" style="fill:#dbdbdb"></rect><rect x="151.77" y="278.22" width="199.21" height="8.06" transform="translate(502.75 564.51) rotate(180)" style="fill:#dbdbdb"></rect><rect x="151.77" y="298.57" width="199.21" height="8.06" transform="translate(502.75 605.2) rotate(180)" style="fill:#dbdbdb"></rect><rect x="151.77" y="318.91" width="199.21" height="8.06" transform="translate(502.75 645.89) rotate(180)" style="fill:#dbdbdb"></rect><rect x="151.77" y="339.26" width="199.21" height="8.06" transform="translate(502.75 686.58) rotate(180)" style="fill:#dbdbdb"></rect><path d="M401.58,215.75V408H98.42V215.75c13,7.38,25.81,15.12,38.7,22.68s25.67,15.38,38.42,23.21q21.3,13,42.57,26.32c.14-.09.32-.18.45-.27-.13.09-.22.22-.36.31q15.92,9.92,31.82,19.9c10.57-6.65,21.17-13.34,31.78-19.9-.14-.09-.23-.22-.36-.31a1.87,1.87,0,0,0,.45.22q21.24-13.25,42.57-26.31,19.13-11.69,38.38-23.17C375.77,230.87,388.56,223.13,401.58,215.75Z" style="fill:#FFFFFF"></path><g style="opacity:0.1"><path d="M401.58,215.75c-12.24,8.61-24.72,16.85-37.06,25.32-12.43,8.28-24.9,16.57-37.42,24.76q-19.61,12.84-39.29,25.45c-.41.28-.77.55-1.18.82q-17.42,11.13-34.92,22.26L250,315.41l-1.69-1.05q-17.47-11.13-34.87-22.3c-.41-.23-.82-.5-1.23-.78q-19.74-12.63-39.34-25.49c-12.47-8.15-24.94-16.44-37.37-24.72-12.34-8.47-24.82-16.71-37.06-25.32,13,7.38,25.81,15.12,38.7,22.68s25.67,15.38,38.42,23.21q21.3,13,42.57,26.32s0,0,.09,0q15.92,9.92,31.82,19.9c10.57-6.65,21.17-13.34,31.78-19.9.05-.09.05-.09.09-.09q21.24-13.25,42.57-26.31,19.13-11.69,38.38-23.17C375.77,230.87,388.56,223.13,401.58,215.75Z"></path><path d="M218.56,287.69c-.13.09-.22.22-.36.31-1.59,1.37-3.19,2.74-4.78,4.06-7.6,6.42-15.39,12.56-23.31,18.53C180.46,318,170.58,325,160.65,332s-20,13.7-30.23,20.26-20.58,13-31.27,18.85c9.19-8.06,18.75-15.57,28.4-22.9S147.13,333.8,157,326.79s20-13.75,30.28-20.3c8.15-5.24,16.43-10.38,24.9-15.21,2-1.14,3.91-2.23,5.92-3.32C218.25,287.87,218.43,287.78,218.56,287.69Z"></path><path d="M400.85,371.14c-10.69-5.88-21.07-12.3-31.27-18.85S349.32,338.9,339.3,332,319.5,318,309.85,310.59c-7.88-6-15.67-12.07-23.22-18.49-1.64-1.36-3.24-2.73-4.83-4.1-.14-.09-.23-.22-.36-.31a1.87,1.87,0,0,0,.45.22c2,1.14,4,2.23,5.92,3.37,8.47,4.83,16.71,10,24.9,15.21C323,313,333,319.87,342.94,326.79s19.81,14.07,29.46,21.45S391.66,363.08,400.85,371.14Z"></path></g><path d="M401.58,408H98.42V366.7l123.67-80.44a51.17,51.17,0,0,1,55.78,0L401.58,366.7Z" style="fill:#FFFFFF"></path></g><g id="freepik--Floor--inject-11"><polygon points="38.37 408.07 91.28 407.83 144.18 407.74 250 407.57 355.82 407.74 408.73 407.83 461.63 408.07 408.73 408.32 355.82 408.4 250 408.57 144.18 408.4 91.28 408.31 38.37 408.07" style="fill:#263238"></polygon></g><g id="freepik--Character--inject-11"><path d="M195.9,446.65c-.18,2.33,6.48,3,9.26,1.49a63.87,63.87,0,0,0,6.4-5.27c6.68-5.9,15.9-14.53,15.9-14.53l6.84,3.07,33.39,11.12,14.08-36.44s-16.15-6.83-31.52-12.95l-6.95-2.74-.42-.16c-10.31-4-18.85-7-19.73-6.35C220.79,385.53,196.08,444.3,195.9,446.65Z" style="fill:#f7a9a0"></path><path d="M195.9,446.64c-.18,2.34,6.48,3,9.26,1.5a63.87,63.87,0,0,0,6.4-5.27c6.68-5.89,15.91-14.53,15.91-14.53l6.83,3.07,1.11.37,15.34-38.45-.49-.2-7-2.72c-.14-.07-.29-.12-.42-.17-10.31-4-18.85-7-19.73-6.35C220.79,385.53,196.08,444.3,195.9,446.64Z" style="fill:#ebebeb"></path><path d="M195.31,447.5c.14-2.39,24.56-62.54,26.95-64.24.89-.66,9.86,2.39,20.6,6.38l.33.13-15.32,39-.65-.29s-19.64,18.85-22.46,20.44S195.15,449.89,195.31,447.5Z" style="fill:#c7c7c7"></path><path d="M197.92,447.77c4.36-10,21-50.94,24.57-61.2,0-.08,0-.1-.06,0-4.54,9.85-20.87,50.89-24.68,61.15C197.67,447.92,197.82,448,197.92,447.77Z" style="fill:#263238"></path><path d="M226,433c2.36-3.69,3.73-8.82,2.13-13-.06-.16-.3-.07-.31.07a59.94,59.94,0,0,1-2.32,12.73A.28.28,0,0,0,226,433Z" style="fill:#263238"></path><path d="M223.1,435.21c2.37-3.69,3.74-8.82,2.13-13-.06-.17-.29-.08-.3.07A61.35,61.35,0,0,1,222.61,435,.27.27,0,0,0,223.1,435.21Z" style="fill:#263238"></path><path d="M220.2,437.38c2.36-3.69,3.73-8.81,2.13-13-.06-.16-.3-.07-.31.08a59.85,59.85,0,0,1-2.32,12.72A.28.28,0,0,0,220.2,437.38Z" style="fill:#263238"></path><path d="M232.61,441.75c2.79-.69,3-4,2.28-6.24a23,23,0,0,0-6.64-9.85.12.12,0,0,0-.19,0,.53.53,0,0,0-.75.43c-.11,3.79-.71,7.82.34,11.54C228.26,439.83,230,442.41,232.61,441.75Zm-4.3-9.85c0-1.87.12-3.72.06-5.59a67.52,67.52,0,0,1,3.75,5.85,22.76,22.76,0,0,1,1.43,3c.6,1.62,1,7.26-3.1,4.78C228.19,438.61,228.3,434.12,228.31,431.9Z" style="fill:#263238"></path><path d="M233.41,415.94c-2.74,2.72-4.2,6.53-6,9.89a.53.53,0,0,0,.44.74.13.13,0,0,0,.15.12,23,23,0,0,0,10.62-5.33c1.73-1.59,3.17-4.58,1.07-6.56S235,414.35,233.41,415.94Zm3.57-.65c4.79-.15,1.68,4.57.36,5.69a25.17,25.17,0,0,1-2.74,1.95,66.51,66.51,0,0,1-6.14,3.24c1-1.59,1.79-3.26,2.69-4.89C232.23,419.34,234.35,415.38,237,415.29Z" style="fill:#263238"></path><path d="M195.31,447.5c-.16,2.39,6.64,3,9.45,1.41s22.46-20.44,22.46-20.44l.65.29L240,397.94l-23.85-2.14C208.14,414,195.41,445.78,195.31,447.5Z" style="opacity:0.1"></path><path d="M240.37,438.15S313,454.81,339.66,450c12.78-2.3,22-18.74,15.86-31.34-5.73-11.75-40.77-23.68-50.67-30.59-3.12-2.17-2.78-10.76-2.78-10.76l-26-.35s-9.26,14.73-5.34,21.9a2.33,2.33,0,0,0,.23.35l-11.73-4.46Z" style="fill:#263238"></path><path d="M256.44,418.52c2.89-6.29,6.07-12.43,9-18.69.06-.12.25-.06.2.07-2.78,6.31-5.34,12.7-8.23,19s-6,12.44-9.07,18.66c-.07.16-.33.07-.26-.09C250.89,431.14,253.56,424.78,256.44,418.52Z" style="fill:#455a64"></path><path d="M270.77,399.51c1.8,1.05,3.51,2.26,5.25,3.38s3.44,2.21,5.2,3.25c3.55,2.11,7.18,4.09,10.86,6A184.76,184.76,0,0,0,315,422c4.37,1.54,8.8,3,13.3,4.16.1,0,0,.17,0,.15-3.28-.79-6.56-1.56-9.8-2.47,1.72,1.08,3.41,2.21,5.11,3.31a.08.08,0,1,1-.08.13c-1.87-1.13-3.76-2.21-5.62-3.37a.18.18,0,0,1-.05-.26c-.55-.16-1.11-.31-1.66-.48-4-1.24-8-2.64-11.87-4.21a146.1,146.1,0,0,1-22.19-11.22q-3-1.86-5.9-3.82a54,54,0,0,1-5.6-4.14C270.45,399.63,270.63,399.43,270.77,399.51Z" style="fill:#455a64"></path><path d="M168,455.56c-.18,2.33,6.48,3,9.26,1.49a64.09,64.09,0,0,0,6.41-5.26c6.67-5.9,15.89-14.54,15.89-14.54l6.84,3.08,32.39,11.08L253.91,415s-16.15-6.84-31.52-13c-2.36-.94-4.69-1.85-6.95-2.73l-.42-.16c-10.31-4-18.85-7-19.73-6.35C192.93,394.45,168.22,453.22,168,455.56Z" style="fill:#f7a9a0"></path><path d="M168,455.56c-.18,2.33,6.48,3,9.26,1.49a64.41,64.41,0,0,0,6.41-5.26c6.66-5.9,15.9-14.54,15.9-14.54l6.83,3.08.91.32,15.92-38.25-.88-.35q-3.54-1.41-6.95-2.73c-.15-.05-.28-.11-.42-.17-10.31-4-18.85-7-19.73-6.34C192.93,394.44,168.22,453.22,168,455.56Z" style="fill:#ebebeb"></path><path d="M167.43,456.09c.18-2.39,25.43-62.2,27.84-63.86.9-.65,9.83,2.52,20.51,6.66l.33.13-15.85,38.77-.65-.29s-19.91,18.57-22.75,20.12S167.25,458.47,167.43,456.09Z" style="fill:#c7c7c7"></path><path d="M170,456.39c4.5-10,21.72-50.65,25.42-60.85,0-.09,0-.11-.07,0-4.68,9.79-21.57,50.6-25.52,60.81C169.79,456.54,169.94,456.6,170,456.39Z" style="fill:#263238"></path><path d="M198.33,442c2.42-3.65,3.86-8.76,2.31-13-.06-.16-.29-.07-.31.07a59.64,59.64,0,0,1-2.49,12.69A.27.27,0,0,0,198.33,442Z" style="fill:#263238"></path><path d="M195.4,444.18c2.41-3.66,3.85-8.77,2.31-13-.06-.17-.3-.08-.31.07A60.54,60.54,0,0,1,194.9,444,.28.28,0,0,0,195.4,444.18Z" style="fill:#263238"></path><path d="M192.46,446.31c2.42-3.65,3.86-8.76,2.31-13-.06-.16-.29-.07-.3.07a60.29,60.29,0,0,1-2.5,12.69A.27.27,0,0,0,192.46,446.31Z" style="fill:#263238"></path><path d="M204.81,450.85c2.8-.65,3.06-4,2.37-6.2a22.93,22.93,0,0,0-6.51-9.95.11.11,0,0,0-.18,0,.54.54,0,0,0-.76.42c-.17,3.78-.82,7.81.18,11.54C200.49,448.87,202.16,451.47,204.81,450.85Zm-4.16-9.91c0-1.86.17-3.72.14-5.58,1.26,1.94,2.6,3.82,3.67,5.89a24.69,24.69,0,0,1,1.38,3.06c.58,1.64.89,7.27-3.17,4.74C200.44,447.65,200.6,443.16,200.65,440.94Z" style="fill:#263238"></path><path d="M206,425.05c-2.77,2.68-4.29,6.47-6.09,9.81a.53.53,0,0,0,.44.74.11.11,0,0,0,.14.12,23,23,0,0,0,10.7-5.17c1.75-1.57,3.23-4.54,1.16-6.54S207.58,423.49,206,425.05Zm3.59-.59c4.78-.09,1.61,4.58.28,5.69a27.64,27.64,0,0,1-2.76,1.91c-2,1.22-4.1,2.14-6.19,3.16,1-1.59,1.83-3.24,2.76-4.86C204.74,428.43,206.91,424.5,209.55,424.46Z" style="fill:#263238"></path><path d="M293.13,377.14l-44.71-.67s-9.49,24.13-5.56,31.31S288,425.21,288,425.21l-56.62-21.53-18.84,43.38s68.84,15,105.35,11.28c13.7-1.4,22.3-19.29,14.27-33C323.69,410.83,293.05,391,293.05,391Z" style="fill:#263238"></path><path d="M232.83,403.56c17.33,7.92,34.81,15.49,52.69,22.09q3.72,1.38,7.46,2.72c2.58.93,5.15,2,7.79,2.74.13,0,.06.24-.06.2-2.28-.86-4.65-1.47-7-2.23s-4.52-1.49-6.77-2.27l-2.91-1,.59.4c.89.59,1.78,1.19,2.66,1.81,1.81,1.27,3.49,2.78,5.39,3.91.11.07,0,.26-.11.18-1.81-1.28-3.84-2.24-5.7-3.45-.9-.59-1.77-1.2-2.65-1.82a17.46,17.46,0,0,1-2.33-1.8q-4.28-1.53-8.52-3.13-13.35-5.1-26.38-11c-4.85-2.19-9.66-4.47-14.4-6.89C232.37,403.88,232.57,403.45,232.83,403.56Z" style="fill:#455a64"></path><path d="M227.58,427.06c2.9-6.29,6.07-12.44,9-18.7.05-.12.25-.05.19.07-2.78,6.31-5.34,12.71-8.23,19s-6,12.45-9.07,18.67c-.07.16-.33.07-.26-.1C222,439.67,224.7,433.32,227.58,427.06Z" style="fill:#455a64"></path><path d="M293.86,391.5A123,123,0,0,1,308,400.87c4.48,3.33,8.83,6.84,13,10.59,2.09,1.89,4.11,3.86,6.06,5.89a45.57,45.57,0,0,1,5.14,6.21,21.89,21.89,0,0,1,3.71,13.64,23.39,23.39,0,0,1-1.78,7.46,27.34,27.34,0,0,1-4.14,6.39c-.06.08-.18,0-.11-.11a17.59,17.59,0,0,0,3.49-6.12,22.67,22.67,0,0,0,1.39-6.51,22.9,22.9,0,0,0-3.13-13.17c-2.75-4.55-6.78-8.33-10.62-12a163,163,0,0,0-12.43-10.59q-3.64-2.79-7.38-5.45c-2.49-1.79-5-3.5-7.46-5.36A.16.16,0,0,1,293.86,391.5Z" style="fill:#455a64"></path><path d="M280.86,393.3a52.71,52.71,0,0,1,11.43-2.18c3.81-.43,7.62-.63,11.46-.69.1,0,.09.15,0,.16-3.88.34-7.76.83-11.61,1.41s-7.47,1.37-11.23,1.67C280.68,393.69,280.68,393.37,280.86,393.3Z" style="fill:#455a64"></path><path d="M250.46,393.83a56.56,56.56,0,0,0,7.12-.64,11.72,11.72,0,0,0,5.59-1.79c3.17-2.38,4.46-6.56,5.13-10.3,0-.08.17-.06.15,0-.54,4.06-.72,8.73-4.29,11.45a10.8,10.8,0,0,1-6.07,1.9,38.22,38.22,0,0,1-7.63-.47A.09.09,0,0,1,250.46,393.83Z" style="fill:#455a64"></path><path d="M245.54,400.27a48.48,48.48,0,0,1,1.25-7c.56-2.36,1.23-4.69,2-7,.85-2.61,1.83-5.19,2.86-7.74,0-.09.19-.05.15.05-1.47,4.31-2.82,8.69-3.94,13.11-.56,2.19-1.05,4.39-1.5,6.61a13.87,13.87,0,0,0,0,6.5,11.36,11.36,0,0,0,3.59,5.57s0,0,0,0A11.69,11.69,0,0,1,245.54,400.27Z" style="fill:#455a64"></path><path d="M237.89,413.53c3,.79,6,1.83,8.94,2.79s5.94,1.93,8.9,2.92c5.92,2,11.83,4,17.73,6.05,3.35,1.16,6.68,2.4,10,3.61a.08.08,0,0,1-.05.16q-17.88-5.56-35.55-11.79c-3.35-1.18-6.74-2.26-10-3.63A.06.06,0,0,1,237.89,413.53Z" style="fill:#455a64"></path><path d="M346.82,265.39a2.29,2.29,0,0,1-2.29,2.29v2.92a2.29,2.29,0,1,1,0,4.58v2.92a2.29,2.29,0,1,1,0,4.58v2.92a2.29,2.29,0,1,1,0,4.58v2.91a2.3,2.3,0,0,1,0,4.59v2.91a2.29,2.29,0,1,1,0,4.58v2.55h2.69a2.29,2.29,0,1,1,4.58,0h2.91a2.3,2.3,0,1,1,4.59,0h2.91a2.3,2.3,0,1,1,4.59,0h2.91a2.3,2.3,0,1,1,4.59,0h2.92a2.29,2.29,0,1,1,4.58,0h2.69v-2.55a2.29,2.29,0,1,1,0-4.58v-2.91a2.3,2.3,0,1,1,0-4.59v-2.91a2.29,2.29,0,1,1,0-4.58v-2.92a2.29,2.29,0,1,1,0-4.58v-2.92a2.29,2.29,0,1,1,0-4.58v-2.92a2.29,2.29,0,1,1,0-4.58v-2.63h-2.7a2.29,2.29,0,0,1-4.57,0h-2.93a2.29,2.29,0,0,1-4.57,0h-2.93a2.29,2.29,0,0,1-4.57,0h-2.93a2.29,2.29,0,0,1-4.57,0h-2.93a2.29,2.29,0,0,1-4.57,0h-2.69v2.63A2.3,2.3,0,0,1,346.82,265.39Z" style="fill:#fff"></path><rect x="351.84" y="268.57" width="25.33" height="31.05" transform="translate(729.01 568.18) rotate(180)" style="fill:#FFFFFF"></rect><path d="M243.78,387.08l63.66,2.12c0,1.25-1.78-45.57-17.31-76.19-1.05-2.08-11-4.62-15.53-.7C254.67,329.49,243.75,387.89,243.78,387.08Z" style="fill:#455a64"></path><path d="M288.3,327.9a3.39,3.39,0,0,1,1.8-.09,1.72,1.72,0,0,1,1.13,1.59,1.36,1.36,0,0,0,.62,1.17,1.42,1.42,0,0,0,.71.23c.29.05.58.09.86.16a3.07,3.07,0,0,1-1.81.07,1.75,1.75,0,0,1-1.06-1.62,1.36,1.36,0,0,0-.66-1.13,1.39,1.39,0,0,0-.73-.21C288.87,328,288.59,328,288.3,327.9Zm6.48,36a1.5,1.5,0,0,1,.73.22,1.34,1.34,0,0,1,.66,1.13,1.75,1.75,0,0,0,1.06,1.62,3.06,3.06,0,0,0,1.81-.07,8.15,8.15,0,0,0-.86-.16,1.46,1.46,0,0,1-.71-.24,1.35,1.35,0,0,1-.62-1.16,1.74,1.74,0,0,0-1.12-1.6,3.42,3.42,0,0,0-1.81.1A8.65,8.65,0,0,0,294.78,363.93ZM273.59,340a1.39,1.39,0,0,1,.73.21,1.32,1.32,0,0,1,.66,1.13,1.75,1.75,0,0,0,1.07,1.62,3.07,3.07,0,0,0,1.81-.07c-.29-.07-.58-.11-.86-.16a1.5,1.5,0,0,1-.72-.24,1.37,1.37,0,0,1-.62-1.16,1.72,1.72,0,0,0-1.12-1.59,3.42,3.42,0,0,0-1.81.09C273,339.93,273.31,340,273.59,340ZM262.1,376.75a1.57,1.57,0,0,1,.73.21,1.35,1.35,0,0,1,.67,1.13,1.71,1.71,0,0,0,1.06,1.62,3.07,3.07,0,0,0,1.81-.06c-.29-.08-.57-.11-.86-.17a1.4,1.4,0,0,1-.72-.23,1.38,1.38,0,0,1-.62-1.17,1.71,1.71,0,0,0-1.12-1.59,3.39,3.39,0,0,0-1.8.09C261.53,376.66,261.82,376.69,262.1,376.75Zm-8.61-9.24a1.61,1.61,0,0,1-.67.37,1.34,1.34,0,0,1-1.27-.34,1.76,1.76,0,0,0-1.9-.39c-.66.29-.9.86-1.23,1.33.26-.15.48-.33.73-.49a1.3,1.3,0,0,1,.67-.34,1.35,1.35,0,0,1,1.26.38,1.72,1.72,0,0,0,1.92.33,3.42,3.42,0,0,0,1.21-1.34C254,367.17,253.73,367.35,253.49,367.51Zm25.76-5.32a1.47,1.47,0,0,1-.67.36,1.33,1.33,0,0,1-1.26-.33,1.73,1.73,0,0,0-1.9-.39c-.66.29-.9.86-1.23,1.32a8.31,8.31,0,0,0,.72-.49,1.53,1.53,0,0,1,.67-.34,1.36,1.36,0,0,1,1.27.39,1.72,1.72,0,0,0,1.91.33A3.27,3.27,0,0,0,280,361.7C279.72,361.85,279.49,362,279.25,362.19Zm20.31,25.12a1.43,1.43,0,0,1-.66.37,1.34,1.34,0,0,1-1.27-.33,1.75,1.75,0,0,0-1.9-.4c-.66.29-.9.86-1.23,1.33.26-.15.48-.33.72-.49a1.41,1.41,0,0,1,1.94,0,1.72,1.72,0,0,0,1.92.34,3.44,3.44,0,0,0,1.21-1.35C300,387,299.8,387.15,299.56,387.31Zm-8.18-40.42a1.39,1.39,0,0,1-.21.73,1.32,1.32,0,0,1-1.13.66,1.75,1.75,0,0,0-1.62,1.07,3.07,3.07,0,0,0,.07,1.81c.07-.29.11-.58.16-.86a1.5,1.5,0,0,1,.24-.72,1.37,1.37,0,0,1,1.16-.62,1.72,1.72,0,0,0,1.59-1.12,3.43,3.43,0,0,0-.09-1.81C291.47,346.32,291.44,346.61,291.38,346.89Zm-26.21-18.36a1.61,1.61,0,0,1-.21.73,1.32,1.32,0,0,1-1.13.66,1.74,1.74,0,0,0-1.62,1.07,3.07,3.07,0,0,0,.06,1.81c.08-.29.11-.58.17-.86a1.5,1.5,0,0,1,.23-.72,1.39,1.39,0,0,1,1.17-.62,1.74,1.74,0,0,0,1.59-1.12,3.39,3.39,0,0,0-.09-1.8C265.26,328,265.23,328.25,265.17,328.53Zm0,25.07a1.65,1.65,0,0,1-.21.73,1.36,1.36,0,0,1-1.13.66,1.73,1.73,0,0,0-1.62,1.06,3.07,3.07,0,0,0,.06,1.81c.08-.29.11-.57.17-.86a1.42,1.42,0,0,1,.23-.71,1.38,1.38,0,0,1,1.17-.63,1.71,1.71,0,0,0,1.59-1.12,3.39,3.39,0,0,0-.09-1.8C265.26,353,265.23,353.31,265.17,353.6Zm20.15,21.59a1.5,1.5,0,0,1-.22.73,1.36,1.36,0,0,1-1.13.66,1.75,1.75,0,0,0-1.62,1.06,3.07,3.07,0,0,0,.07,1.81c.08-.29.11-.57.17-.86a1.33,1.33,0,0,1,.23-.71,1.36,1.36,0,0,1,1.16-.63,1.72,1.72,0,0,0,1.6-1.12,3.38,3.38,0,0,0-.1-1.8C285.41,374.62,285.37,374.9,285.32,375.19Zm-9.32-55a1.47,1.47,0,0,1,.67-.36,1.36,1.36,0,0,1,1.27.33,1.72,1.72,0,0,0,1.89.39,3.12,3.12,0,0,0,1.24-1.32,7.15,7.15,0,0,0-.73.49,1.48,1.48,0,0,1-.67.34,1.34,1.34,0,0,1-1.26-.39,1.74,1.74,0,0,0-1.92-.33,3.42,3.42,0,0,0-1.21,1.34C275.54,320.56,275.76,320.39,276,320.22Z" style="fill:#fff"></path><path d="M288.23,321.19c-3.08.47-9.08-3.62-10.88-8.12-.12-.31.69-3.3,1.51-7,.49-2.24,1-4.74,1.26-7.06.06-.48,14.1,5.3,14.1,5.3a36.92,36.92,0,0,0-2.48,8.73,5.17,5.17,0,0,0,0,1,.85.85,0,0,1,0,.16C291.8,316,291.53,320.7,288.23,321.19Z" style="fill:#f7a9a0"></path><path d="M291.73,314c0,.05,0,.1,0,.16a11.41,11.41,0,0,1-1.49-.1c-8.54-1.23-9.49-12.22-9.6-15,2.54.68,13.6,5.23,13.6,5.23a36.89,36.89,0,0,0-2.49,8.73A5.16,5.16,0,0,0,291.73,314Z" style="fill:#263238"></path><path d="M295.22,274.18s4.9,1.79,6,6.63.2,10-.21,10.28S295.22,274.18,295.22,274.18Z" style="fill:#263238"></path><path d="M276.89,283c-1.27,5.28,2.34,20.09,6.22,23.21,5.62,4.53,14.4,4.48,18.14-2.18,3.62-6.46-1.43-25.68-5.72-28.48C289.2,271.42,278.78,275.19,276.89,283Z" style="fill:#f7a9a0"></path><path d="M292,291.09s-.06.07,0,.11c.27,1,.41,2.17-.41,2.72a0,0,0,1,0,0,.05C292.64,293.55,292.44,292,292,291.09Z" style="fill:#263238"></path><path d="M290.88,290.26c-1.63.26-1,3.51.52,3.27S292.25,290,290.88,290.26Z" style="fill:#263238"></path><path d="M297.89,290.1s.09,0,.09.08c.17,1,.53,2.14,1.51,2.3,0,0,0,0,0,0C298.35,292.6,297.88,291.09,297.89,290.1Z" style="fill:#263238"></path><path d="M298.58,288.87c1.59-.44,2.36,2.78.89,3.19S297.24,289.24,298.58,288.87Z" style="fill:#263238"></path><path d="M289.3,289a12.55,12.55,0,0,0,1.18-.69c.44-.28.83-.44,1.06-.94a.7.7,0,0,0-.28-.81,1.75,1.75,0,0,0-1.75.16,2.54,2.54,0,0,0-1.23,1.37A.75.75,0,0,0,289.3,289Z" style="fill:#263238"></path><path d="M299.51,287c-.46,0-.89-.05-1.36-.08a2.19,2.19,0,0,1-1.37-.35.69.69,0,0,1-.12-.85,1.72,1.72,0,0,1,1.63-.65,2.59,2.59,0,0,1,1.72.65A.75.75,0,0,1,299.51,287Z" style="fill:#263238"></path><path d="M292.94,300.63c.29.18.59.46,1,.42a2.72,2.72,0,0,0,1-.47s.07,0,.05,0a1.38,1.38,0,0,1-1.17.8,1.09,1.09,0,0,1-1-.73A.06.06,0,0,1,292.94,300.63Z" style="fill:#263238"></path><path d="M293.4,297.4a3.48,3.48,0,0,0,2.59,1.07,4.45,4.45,0,0,0,1.25-.18l.23-.08a.9.9,0,0,0,.21-.08.25.25,0,0,0,.16-.26h0a.54.54,0,0,0,0-.1h0l0-.08c-.13-.78-.44-1.95-.44-1.95.31.09,1.88.45,1.78,0a52.54,52.54,0,0,0-3.38-10.12c-.05-.1-.21,0-.18.06.7,3.22,2,6.3,2.73,9.52a5.9,5.9,0,0,0-1.72-.17c-.1.05.64,2.24.67,2.59v0a4.8,4.8,0,0,1-3.77-.4C293.39,297.25,293.33,297.33,293.4,297.4Z" style="fill:#263238"></path><path d="M296.7,298a4.1,4.1,0,0,1-1.38,1.59,1.92,1.92,0,0,1-1.09.29c-.85-.05-1-.79-1-1.45a4.12,4.12,0,0,1,.17-1A5.32,5.32,0,0,0,296.7,298Z" style="fill:#263238"></path><path d="M295.32,299.57a1.92,1.92,0,0,1-1.09.29c-.85-.05-1-.79-1-1.45A1.91,1.91,0,0,1,295.32,299.57Z" style="fill:#ff99ba"></path><path d="M279.28,297c1.78,0,2.29-5.41,2.3-7.45,0-1.8-.93-7.24-.95-7.63s8.44,2.7,12.23.34,5.52-6.83,5.1-8.58-6.78-4.7-11.28-3.69-8.93,8.32-8.93,8.32a21.93,21.93,0,0,0,1.24-3.18c-.13-.18-2.67,1.76-2.63,4,0,0-.15-2.72-.38-2.71s-1.84,2.83-.88,4.35c0,0-2,2.95-1.51,5.47S277.19,297,279.28,297Z" style="fill:#263238"></path><path d="M295.56,280.6a14.51,14.51,0,0,1-3.51,2.48,9.56,9.56,0,0,1-4.65.53,14.69,14.69,0,0,1-4.55-1.22c-1.27-.56-2.47-1.33-3.79-1.78-.32-.12-.53.37-.29.58a15.42,15.42,0,0,0,9,3.42,8.83,8.83,0,0,0,7.79-4S295.57,280.58,295.56,280.6Z" style="fill:#263238"></path><path d="M281.4,295.13s-3.76-4.57-5.86-3.19,1,8.19,3.65,8.94a2.63,2.63,0,0,0,3.4-1.68Z" style="fill:#f7a9a0"></path><path d="M276.48,293.87a0,0,0,0,0,0,.07c1.86.59,2.95,2.19,3.75,3.87a1.46,1.46,0,0,0-2.2-.22.06.06,0,0,0,.06.09,1.62,1.62,0,0,1,1.82.42,8,8,0,0,1,1,1.37c.1.16.38,0,.31-.13l0,0C281,297,279,293.91,276.48,293.87Z" style="fill:#263238"></path><path d="M276.77,332.35c12.57,8.79,38.13,27.81,49.4,26.32,14.78-2,34.71-23.14,40.19-28.56,2.39-2.36-12.36-19.18-15.95-19s-28.48,21.69-31,22.62-24.27-9.14-36.84-12.55C266.72,316.89,266.13,324.92,276.77,332.35Z" style="fill:#f7a9a0"></path><path d="M360.89,306.63c-1.66.45-1.9-.41-.08-2.86s11.1-10.56,8-13.55-16,8.64-18.75,12.94-5.62,12.2-5.62,12.2C347.4,313.6,355,310,360.89,306.63Z" style="fill:#f7a9a0"></path><path d="M359.73,335.68c8.18-5.27,18.69-11.33,23.63-21.14a5.4,5.4,0,0,0,.56-3.51c2.3-4.36.93-6.75.93-6.75.89-4.71-.84-7-.84-7s2.63-5.14-.21-7.25c-3.18-2.38-6.26,5.31-10.54,8.5-9.81,7.31-25.79,15-28.83,16.79Z" style="fill:#f7a9a0"></path><path d="M368.37,313.45a79.44,79.44,0,0,0,8.22-6.88,79,79,0,0,0,7.28-9.23.1.1,0,0,1,.17.1,41.64,41.64,0,0,1-15.57,16.14C368.32,313.67,368.23,313.57,368.37,313.45Z" style="fill:#263238"></path><path d="M371.92,320c2.65-2.3,7.27-6.38,12.83-15.79a0,0,0,0,1,.06,0A37.29,37.29,0,0,1,372,320.14C371.86,320.27,371.75,320.17,371.92,320Z" style="fill:#263238"></path><path d="M373.9,323.5c4.35-4.09,6.58-7.21,10-12.47a0,0,0,0,1,.06,0c-3.26,6.37-5.16,8.31-9.93,12.6C373.85,323.82,373.73,323.66,373.9,323.5Z" style="fill:#263238"></path><path d="M299.89,325.45l-3.73,23.14s-20.64-15.44-25.42-21.7c-5.39-7-.61-8.25,7.75-7.21S299.89,325.45,299.89,325.45Z" style="fill:#455a64"></path><path d="M288.3,327.9a3.39,3.39,0,0,1,1.8-.09,1.72,1.72,0,0,1,1.13,1.59,1.36,1.36,0,0,0,.62,1.17,1.42,1.42,0,0,0,.71.23c.29.05.58.09.86.16a3.07,3.07,0,0,1-1.81.07,1.75,1.75,0,0,1-1.06-1.62,1.36,1.36,0,0,0-.66-1.13,1.39,1.39,0,0,0-.73-.21C288.87,328,288.59,328,288.3,327.9Zm-8.19-8h0a1.36,1.36,0,0,1-1.69-.22l0,0c-.71-.09-1.39-.16-2-.21a3.79,3.79,0,0,0-1.06,1.25c.26-.15.48-.32.72-.49a1.47,1.47,0,0,1,.67-.36,1.36,1.36,0,0,1,1.27.33,1.72,1.72,0,0,0,1.89.39,1.74,1.74,0,0,0,.73-.59Z" style="fill:#fff"></path><path d="M295.58,325.59c-.88,2.88-2.28,11.89-2.53,13.38-.13.79-.51,3.94-.65,4.72,0,.1.14.11.16,0,.26-1.49.67-3,.95-4.45s2-10.61,2.18-13.64C295.69,325.55,295.59,325.53,295.58,325.59Z" style="fill:#263238"></path><path d="M290.44,322c-1.13-.49-2.26-1-3.41-1.45,0,0,0,0,0,0,.82.4,1.65.78,2.48,1.15-1.76-.47-3.52-.91-5.29-1.27,0,0,0,0,0,.05,2.59.93,5.22,1.72,7.83,2.59s5.13,1.66,7.7,2.47c0,.54,0,1.08,0,1.62a.08.08,0,0,0,.16,0c.12-.57.24-1.15.39-1.72a.28.28,0,0,0-.15-.34C296.93,324,293.7,322.91,290.44,322Z" style="fill:#263238"></path><path d="M283.8,339.82c-1-.68-2.07-1.36-3.08-2.07,0,0,0,0,0,0,.78.47,1.55.95,2.32,1.45-1.36-1.22-2.69-2.45-4-3.74,0,0,0-.05,0,0,2.19,1.65,4.29,3.43,6.45,5.14s8.4,6.21,10.49,7.92c0,0,.21-1.56.39-2.4,0-.1.19-.11.19,0a14.76,14.76,0,0,1-.36,3.12C293.6,347.17,286.35,342.05,283.8,339.82Z" style="fill:#263238"></path></g></svg>